<?xml version="1.0" encoding="UTF-8"?>
<svg width="32px" height="32px" viewBox="0 0 32 32" version="1.1" xmlns="http://www.w3.org/2000/svg" xmlns:xlink="http://www.w3.org/1999/xlink">
    <title>logo/sugar</title>
    <g id="logo/sugar" stroke="none" stroke-width="1" fill="none" fill-rule="evenodd">
        <g id="编组-5" transform="translate(5.000000, 4.000000)">
            <path d="M1.01524723,4.09649519 L10.3788836,0.254828579 C10.7768646,0.0915468804 11.2231354,0.0915468804 11.6211164,0.254828579 L20.9847528,4.09649519 C21.5989247,4.34847462 22,4.94654455 22,5.61039755 L22,18.4330779 C22,19.0991565 21.5962668,19.6987669 20.9790961,19.9492887 L11.6154598,23.7501728 C11.2207911,23.9103765 10.7792089,23.9103765 10.3845402,23.7501728 L1.02090386,19.9492887 C0.403733159,19.6987669 1.85792795e-15,19.0991565 0,18.4330779 L0,5.61039755 C-8.1298545e-17,4.94654455 0.401075296,4.34847462 1.01524723,4.09649519 Z" id="矩形" fill="#7F7F7F"></path>
            <path d="M1.85166607,6.57719008 L9.77151395,9.81135256 C10.1818395,9.9789138 10.45,10.3780782 10.45,10.821298 L10.45,21.8219505 C10.45,22.1231967 10.2057917,22.367405 9.90454545,22.367405 C9.83383409,22.367405 9.76379733,22.3536559 9.69833393,22.3269232 L1.77848605,19.0927607 C1.36816049,18.9251995 1.1,18.5260351 1.1,18.0828152 L1.1,7.08216282 C1.1,6.7809166 1.34420832,6.53670828 1.64545455,6.53670828 C1.71616591,6.53670828 1.78620267,6.55045734 1.85166607,6.57719008 Z" id="矩形" fill="#DA153C"></path>
            <path d="M12.3016661,6.57719008 L20.221514,9.81135256 C20.6318395,9.9789138 20.9,10.3780782 20.9,10.821298 L20.9,21.8219505 C20.9,22.1231967 20.6557917,22.367405 20.3545455,22.367405 C20.2838341,22.367405 20.2137973,22.3536559 20.1483339,22.3269232 L12.228486,19.0927607 C11.8181605,18.9251995 11.55,18.5260351 11.55,18.0828152 L11.55,7.08216282 C11.55,6.7809166 11.7942083,6.53670828 12.0954545,6.53670828 C12.1661659,6.53670828 12.2362027,6.55045734 12.3016661,6.57719008 Z" id="矩形" fill="#02559F" transform="translate(16.225000, 14.452057) scale(-1, 1) translate(-16.225000, -14.452057) "></path>
            <path d="M11.8558591,1.20304068 L19.6876602,4.63627206 C19.9635608,4.7572188 20.0891758,5.07892718 19.9682291,5.35482785 C19.9098698,5.48795566 19.8007873,5.59228314 19.6651922,5.644655 L11.7657866,8.69569992 C11.2588751,8.89148802 10.6971455,8.89106642 10.1905285,8.69451762 L2.32860555,5.64438006 C2.04775494,5.53542033 1.90840985,5.21941661 2.01736958,4.938566 C2.06972999,4.80360371 2.17359316,4.69499135 2.30608115,4.63665297 L10.1006315,1.20448175 C10.6597066,0.958304414 11.2963804,0.957781693 11.8558591,1.20304068 Z" id="矩形" fill="#8FC8EC"></path>
        </g>
    </g>
</svg>